# xmcd CD database file
#
# Track frame offsets:
#	150
#	7797
#	12437
#	21745
#	23817
#	36917
#	71009
#	154093
#	161908
#	196404
#
# Disc length: 3962 seconds
#
# Revision: 0
# Processed by: cddbd v1.5.1PL2 Copyright (c) Steve Scherf et al.
# Submitted via: CDex 1.51
#
DISCID=7e0f780a
DTITLE=Meditacion Activa - Vol 3 - Campo energetico de proteccion
DYEAR=1900
DGENRE=New Age
TTITLE0=Introduccion
TTITLE1=Energia y aura
TTITLE2=Recomendaciones
TTITLE3=Fuerzas superiores
TTITLE4=Previo a la meditacion del campo energetico de proteccion
TTITLE5=Relajacion uno
TTITLE6=Meditacion del campo de proteccion
TTITLE7=Previo a la meditacino del anhelo
TTITLE8=Relajacion dos
TTITLE9=Meditacion del anhelo
EXTD=
EXTT0=
EXTT1=
EXTT2=
EXTT3=
EXTT4=
EXTT5=
EXTT6=
EXTT7=
EXTT8=
EXTT9=
PLAYORDER=
